<?xml version="1.0" encoding="utf-8"?>
<!-- Generator: Adobe Illustrator 19.0.1, SVG Export Plug-In . SVG Version: 6.00 Build 0)  -->
<svg version="1.1" id="Ebene_1" xmlns="http://www.w3.org/2000/svg" xmlns:xlink="http://www.w3.org/1999/xlink" x="0px" y="0px"
	 viewBox="0 0 143.7 51.3" style="enable-background:new 0 0 143.7 51.3;" xml:space="preserve">
<style type="text/css">
	.st0{display:none;}
	.st1{display:inline;}
	.st2{fill:#E3E3E3;}
	.st3{fill-rule:evenodd;clip-rule:evenodd;fill:#E3E3E3;}
</style>
<text transform="matrix(1 0 0 1 -587.1684 -852.8256)" class="st0" style="font-family:'MyriadPro-Regular'; font-size:12px;">weiß, getönt transparent</text>
<text transform="matrix(1 0 0 1 -587.1684 -656.8256)" class="st0" style="font-family:'MyriadPro-Regular'; font-size:12px;">schwarz, getönt transparent</text>
<text transform="matrix(1 0 0 1 -587.1684 -754.8256)" class="st0" style="font-family:'MyriadPro-Regular'; font-size:12px;">blau, getönt transparent</text>
<text transform="matrix(1 0 0 1 -587.1684 -362.8256)" class="st0" style="font-family:'MyriadPro-Regular'; font-size:12px;">blau, glatt</text>
<text transform="matrix(1 0 0 1 -587.1684 -166.8271)" class="st0" style="font-family:'MyriadPro-Regular'; font-size:12px;">farbe, schrift schwarz</text>
<text transform="matrix(1 0 0 1 -587.1684 -460.8256)" class="st0" style="font-family:'MyriadPro-Regular'; font-size:12px;">weiß, glatt</text>
<text transform="matrix(1 0 0 1 -587.1684 -68.8237)" class="st0" style="font-family:'MyriadPro-Regular'; font-size:12px;">farbe, schrift weiß</text>
<g>
	<path class="st2" d="M7.2,21.1c-0.7,0.8-1.8,1.1-3.1,1.1H0V10.4h4.2c1.2,0,2.3,0.4,3.1,1.1c1.3,1.3,1.2,3,1.2,4.7
		C8.4,17.9,8.5,19.8,7.2,21.1 M6,12.8C5.5,12.2,4.8,12,4,12H1.8v8.6H4c0.8,0,1.5-0.3,2-0.8c0.6-0.7,0.6-2,0.6-3.6
		C6.6,14.6,6.6,13.5,6,12.8"/>
	<path class="st2" d="M19.3,22.2l-2.5-5h-2.3v5h-1.8V10.4h4.6c2.3,0,3.7,1.4,3.7,3.5c0,1.7-1,2.8-2.4,3.1l2.7,5.2H19.3z M17.2,12
		h-2.7v3.7h2.7c1.2,0,2-0.7,2-1.9C19.2,12.7,18.4,12,17.2,12"/>
	<polygon class="st2" points="25.3,22.2 25.3,10.4 32.9,10.4 32.9,12 27.1,12 27.1,15.4 32.1,15.4 32.1,17 27.1,17 27.1,20.6 
		32.9,20.6 32.9,22.2 	"/>
	<path class="st2" d="M40.2,22.3c-1.8,0-3.1-0.4-4.2-1.6l1.2-1.2c0.9,0.9,1.8,1.1,3,1.1c1.5,0,2.4-0.7,2.4-1.8
		c0-0.5-0.1-0.9-0.5-1.2c-0.3-0.3-0.6-0.4-1.3-0.5L39.5,17c-1-0.1-1.7-0.5-2.3-1c-0.6-0.5-0.9-1.3-0.9-2.3c0-2.1,1.5-3.5,4-3.5
		c1.6,0,2.7,0.4,3.7,1.3l-1.2,1.1c-0.7-0.7-1.6-0.9-2.6-0.9c-1.4,0-2.2,0.8-2.2,1.9c0,0.4,0.1,0.8,0.4,1.1c0.3,0.3,0.8,0.5,1.3,0.5
		l1.3,0.2c1.1,0.2,1.7,0.4,2.2,0.9c0.7,0.6,1,1.4,1,2.4C44.4,21,42.7,22.3,40.2,22.3"/>
	<path class="st2" d="M55.8,21.1c-0.7,0.8-1.8,1.1-3.1,1.1h-4.2V10.4h4.2c1.2,0,2.3,0.4,3.1,1.1c1.3,1.3,1.2,3,1.2,4.7
		C57,17.9,57,19.8,55.8,21.1 M54.5,12.8c-0.5-0.5-1.2-0.8-2-0.8h-2.2v8.6h2.2c0.8,0,1.5-0.3,2-0.8c0.6-0.7,0.6-2,0.6-3.6
		C55.2,14.6,55.1,13.5,54.5,12.8"/>
	<polygon class="st2" points="61.3,22.2 61.3,10.4 68.9,10.4 68.9,12 63.1,12 63.1,15.4 68,15.4 68,17 63.1,17 63.1,20.6 68.9,20.6 
		68.9,22.2 	"/>
	<polygon class="st2" points="80.3,22.2 74.8,13.9 74.8,22.2 73,22.2 73,10.4 74.6,10.4 80.1,18.7 80.1,10.4 81.9,10.4 81.9,22.2 	
		"/>
	<path class="st2" d="M19.6,41.1c-1.9,0-3.8-1.2-3.8-4.3c0-3.2,1.9-4.3,3.8-4.3c1.2,0,2,0.3,2.8,1.2l-1.2,1.1
		c-0.5-0.6-0.9-0.8-1.6-0.8c-0.6,0-1.2,0.3-1.6,0.8c-0.4,0.5-0.5,1.1-0.5,2c0,1,0.1,1.6,0.5,2.1c0.4,0.5,0.9,0.7,1.6,0.7
		c0.7,0,1.1-0.2,1.6-0.8l1.2,1.1C21.6,40.8,20.8,41.1,19.6,41.1"/>
	<path class="st2" d="M31.4,40.1c-0.5,0.6-1.4,1-2.5,1c-1.2,0-2-0.4-2.5-1c-0.8-0.8-1-1.9-1-3.3c0-1.4,0.2-2.5,1-3.3
		c0.5-0.6,1.4-1,2.5-1c1.1,0,2,0.4,2.5,1c0.8,0.8,1,1.9,1,3.3C32.4,38.2,32.2,39.3,31.4,40.1 M30.1,34.5c-0.3-0.3-0.7-0.5-1.2-0.5
		c-0.5,0-0.9,0.2-1.2,0.5c-0.5,0.5-0.6,1.4-0.6,2.3c0,0.9,0.1,1.8,0.6,2.3c0.3,0.3,0.7,0.5,1.2,0.5c0.5,0,0.9-0.2,1.2-0.5
		c0.5-0.5,0.6-1.4,0.6-2.3C30.7,35.9,30.6,35,30.1,34.5"/>
	<path class="st2" d="M41.5,41v-5.1c0-1.3-0.8-1.9-1.7-1.9c-0.9,0-1.7,0.6-1.7,1.9V41h-1.7v-8.4H38v0.9c0.6-0.6,1.4-0.9,2.3-0.9
		c0.9,0,1.6,0.3,2.1,0.8c0.6,0.6,0.8,1.4,0.8,2.4V41H41.5z"/>
	<path class="st2" d="M50.8,41.1c-1.9,0-3.8-1.2-3.8-4.3c0-3.2,1.9-4.3,3.8-4.3c1.2,0,2,0.3,2.8,1.2l-1.2,1.1
		c-0.5-0.6-0.9-0.8-1.6-0.8c-0.7,0-1.2,0.3-1.6,0.8c-0.4,0.5-0.5,1.1-0.5,2c0,1,0.1,1.6,0.5,2.1c0.4,0.5,0.9,0.7,1.6,0.7
		c0.7,0,1.1-0.2,1.6-0.8l1.2,1.1C52.8,40.8,52,41.1,50.8,41.1"/>
	<path class="st2" d="M58.2,37.3c0,1.4,0.8,2.4,2.1,2.4c0.9,0,1.5-0.3,2-0.9l1.1,1c-0.9,0.9-1.7,1.3-3.2,1.3c-2.1,0-3.8-1.1-3.8-4.3
		c0-2.7,1.4-4.3,3.6-4.3c2.3,0,3.6,1.7,3.6,4.1v0.8H58.2z M61.7,34.9c-0.3-0.6-0.9-1.1-1.7-1.1c-0.8,0-1.4,0.4-1.7,1.1
		c-0.2,0.4-0.2,0.6-0.2,1.1H62C62,35.6,61.9,35.3,61.7,34.9"/>
	<path class="st2" d="M73.5,40.4c-0.5,0.5-1.2,0.7-2,0.7c-0.9,0-1.6-0.2-2.2-1v4.3h-1.7V32.6h1.7v0.9c0.6-0.8,1.3-1,2.2-1
		c0.8,0,1.6,0.3,2.1,0.7c0.8,0.9,0.9,2.3,0.9,3.6C74.5,38.1,74.4,39.5,73.5,40.4 M71,34c-1.5,0-1.8,1.3-1.8,2.8
		c0,1.5,0.2,2.8,1.8,2.8c1.5,0,1.7-1.3,1.7-2.8C72.8,35.3,72.6,34,71,34"/>
	<path class="st2" d="M81,41c-1.6,0-2.3-1.1-2.3-2.3V34h-1v-1.3h1v-2.6h1.7v2.6H82V34h-1.6v4.6c0,0.6,0.3,1,0.9,1H82V41H81z"/>
	<polygon class="st3" points="121.3,0.5 112.7,9.2 137.8,9.2 	"/>
	<polygon class="st3" points="102.6,5.5 102.6,17.8 120.4,0 	"/>
	<polygon class="st3" points="92.9,22.3 101.5,31 101.5,5.9 	"/>
	<polygon class="st3" points="97.9,41.1 110.1,41.1 92.4,23.3 	"/>
	<polygon class="st3" points="114.7,50.8 123.4,42.1 98.2,42.1 	"/>
	<polygon class="st3" points="133.5,45.8 133.5,33.5 115.7,51.3 	"/>
	<polygon class="st3" points="143.2,29 134.5,20.3 134.5,45.5 	"/>
	<polygon class="st3" points="138.1,10.2 125.9,10.2 143.7,28 	"/>
</g>
<text transform="matrix(1 0 0 1 -587.1684 29.1763)" class="st0" style="font-family:'MyriadPro-Regular'; font-size:12px;">farbe, DDC vorgabe</text>
<text transform="matrix(1 0 0 1 -587.1684 -558.8259)" class="st0" style="font-family:'MyriadPro-Regular'; font-size:12px;">grau </text>
<text transform="matrix(1 0 0 1 -587.1684 -264.8261)" class="st0" style="font-family:'MyriadPro-Regular'; font-size:12px;">schwarz, glatt</text>
</svg>
